<svg width="186" height="113" viewBox="0 0 186 113" fill="none" xmlns="http://www.w3.org/2000/svg">
<g filter="url(#filter0_d_42_52)">
<path d="M35.7591 35.8906C35.7591 35.1094 35.8059 34.3281 35.8997 33.5469C36.0247 32.7656 36.1497 32 36.2747 31.25C36.4309 30.4688 36.5559 29.6875 36.6497 28.9062C36.7747 28.0938 36.8372 27.2812 36.8372 26.4688C35.8059 26.4688 34.9153 26.5156 34.1653 26.6094C33.4153 26.7031 32.6809 26.7969 31.9622 26.8906C31.2434 26.9844 30.4778 27.0625 29.6653 27.125C28.8528 27.1562 27.8684 27.1406 26.7122 27.0781C25.8684 28.0156 24.8997 29.0156 23.8059 30.0781C22.7434 31.1406 21.6028 32.125 20.3841 33.0312C19.1653 33.9375 17.8841 34.7031 16.5403 35.3281C15.1966 35.9219 13.8372 36.2188 12.4622 36.2188C11.5247 36.2188 10.6184 36.0625 9.74344 35.75C8.89969 35.4375 8.14969 35 7.49344 34.4375C6.83719 33.875 6.32156 33.2031 5.94656 32.4219C5.57156 31.6094 5.38406 30.7188 5.38406 29.75C5.38406 29.25 5.46219 28.875 5.61844 28.625C5.80594 28.3438 6.18094 28.2031 6.74344 28.2031C7.02469 28.2031 7.27469 28.4688 7.49344 29C7.71219 29.5 7.99344 30.0781 8.33719 30.7344C8.71219 31.3594 9.18094 31.9375 9.74344 32.4688C10.3059 32.9688 11.0716 33.2188 12.0403 33.2188C13.2278 33.2188 14.3841 33 15.5091 32.5625C16.6653 32.0938 17.7591 31.5156 18.7903 30.8281C19.8528 30.1094 20.8372 29.3125 21.7434 28.4375C22.6809 27.5625 23.5247 26.7031 24.2747 25.8594C24.1809 25.0781 23.8997 24.5 23.4309 24.125C22.9622 23.75 22.4622 23.375 21.9309 23C21.4309 22.625 20.9778 22.125 20.5716 21.5C20.1653 20.875 19.9622 19.8906 19.9622 18.5469C19.9622 16.6406 20.5403 15.1562 21.6966 14.0938C22.8528 13 24.4309 12.4531 26.4309 12.4531C27.0247 12.4531 27.6028 12.5156 28.1653 12.6406C28.7591 12.7656 29.3528 12.9219 29.9466 13.1094C30.5403 13.2656 31.1184 13.4063 31.6809 13.5312C32.2747 13.6562 32.8684 13.7188 33.4622 13.7188C33.8372 13.7188 34.1341 13.6719 34.3528 13.5781C34.6028 13.4844 34.8216 13.3438 35.0091 13.1562C35.1966 12.9688 35.3997 12.7187 35.6184 12.4062C35.8372 12.0938 36.1184 11.7188 36.4622 11.2812C36.6497 11.0312 36.9309 10.6406 37.3059 10.1094C37.7122 9.54688 38.1497 8.9375 38.6184 8.28125C39.0872 7.59375 39.5872 6.875 40.1184 6.125C40.6497 5.375 41.1497 4.65625 41.6184 3.96875C42.0872 3.28125 42.5091 2.67188 42.8841 2.14062C43.2591 1.60937 43.5247 1.20312 43.6809 0.921875C44.0247 0.640625 44.3372 0.46875 44.6184 0.40625C44.8997 0.3125 45.2278 0.265625 45.6028 0.265625C45.9778 0.265625 46.2591 0.40625 46.4466 0.6875C46.6341 0.9375 46.7434 1.25 46.7747 1.625C46.8372 2 46.8528 2.39063 46.8216 2.79688C46.8216 3.17188 46.8216 3.46875 46.8216 3.6875C46.8216 3.78125 46.8216 3.9375 46.8216 4.15625C46.8216 4.34375 46.8059 4.54688 46.7747 4.76562C46.7747 4.98437 46.7747 5.20313 46.7747 5.42188C46.7747 5.60938 46.7747 5.73437 46.7747 5.79688C46.6809 6.10937 46.5247 6.57812 46.3059 7.20312C46.1184 7.82813 45.8997 8.54687 45.6497 9.35938C45.3997 10.1406 45.1341 10.9688 44.8528 11.8438C44.6028 12.7187 44.3528 13.5625 44.1028 14.375C43.8841 15.1875 43.6809 15.9062 43.4934 16.5312C43.3059 17.1562 43.1809 17.625 43.1184 17.9375C43.0872 18.0938 43.0403 18.3438 42.9778 18.6875C42.9153 19.0312 42.8528 19.4062 42.7903 19.8125C42.7278 20.1875 42.6653 20.5469 42.6028 20.8906C42.5403 21.2344 42.5091 21.4688 42.5091 21.5938C42.7903 21.6562 43.0716 21.75 43.3528 21.875C43.6341 22 43.7747 22.2031 43.7747 22.4844C43.7747 22.7969 43.6497 23.0469 43.3997 23.2344C43.1809 23.4219 42.9153 23.5938 42.6028 23.75C42.2903 23.9062 41.9934 24.0938 41.7122 24.3125C41.4622 24.5312 41.3216 24.8438 41.2903 25.25C41.2278 25.625 41.1184 26.3125 40.9622 27.3125C40.8059 28.2812 40.6184 29.3281 40.3997 30.4531C40.2122 31.5469 40.0247 32.5781 39.8372 33.5469C39.6809 34.5156 39.5559 35.1875 39.4622 35.5625C39.4309 35.6562 39.3684 35.8281 39.2747 36.0781C39.1809 36.3281 39.0716 36.5781 38.9466 36.8281C38.8216 37.0781 38.6966 37.3125 38.5716 37.5312C38.4466 37.75 38.3528 37.9062 38.2903 38C37.5403 37.8438 36.9309 37.6562 36.4622 37.4375C35.9934 37.1875 35.7591 36.6719 35.7591 35.8906ZM34.9622 17.8906C34.5872 17.8906 34.0559 18.1562 33.3684 18.6875C32.7122 19.2188 32.0559 19.8438 31.3997 20.5625C30.7434 21.25 30.1653 21.9531 29.6653 22.6719C29.1653 23.3594 28.9153 23.875 28.9153 24.2188C29.1028 24.2188 29.4622 24.2188 29.9934 24.2188C30.5559 24.1875 31.1341 24.1719 31.7278 24.1719C32.3528 24.1406 32.9309 24.1094 33.4622 24.0781C34.0247 24.0469 34.4153 24.0312 34.6341 24.0312C34.7591 24.0312 34.9466 24 35.1966 23.9375C35.4778 23.875 35.7434 23.8125 35.9934 23.75C36.2434 23.6875 36.4622 23.625 36.6497 23.5625C36.8684 23.5 36.9934 23.4531 37.0247 23.4219C37.0559 23.4219 37.0716 23.3281 37.0716 23.1406C37.0716 22.9219 37.0716 22.75 37.0716 22.625C37.0716 22.375 37.0247 21.9844 36.9309 21.4531C36.8684 20.9219 36.7434 20.3906 36.5559 19.8594C36.3997 19.3281 36.1809 18.875 35.8997 18.5C35.6497 18.0938 35.3372 17.8906 34.9622 17.8906ZM21.7903 17.9375C21.7903 18.375 21.9466 18.875 22.2591 19.4375C22.5716 20 22.9622 20.5312 23.4309 21.0312C23.8997 21.5312 24.3997 21.9531 24.9309 22.2969C25.4622 22.6406 25.9622 22.8125 26.4309 22.8125C26.8684 22.8125 27.3841 22.5469 27.9778 22.0156C28.5716 21.4844 29.1341 20.875 29.6653 20.1875C30.2278 19.4688 30.6966 18.7812 31.0716 18.125C31.4466 17.4688 31.6341 17.0156 31.6341 16.7656C31.6341 16.2344 31.4466 15.8438 31.0716 15.5938C30.7278 15.3125 30.3059 15.125 29.8059 15.0312C29.3372 14.9062 28.8372 14.8438 28.3059 14.8438C27.7747 14.8438 27.3372 14.8438 26.9934 14.8438C26.5559 14.8438 26.0247 14.8906 25.3997 14.9844C24.8059 15.0469 24.2434 15.1875 23.7122 15.4062C23.1809 15.625 22.7278 15.9375 22.3528 16.3438C21.9778 16.75 21.7903 17.2812 21.7903 17.9375ZM35.8528 15.5469C36.5403 16.3594 37.1809 17.2344 37.7747 18.1719C38.3684 19.1094 38.9309 20.0625 39.4622 21.0312L43.6341 6.03125L35.8528 15.5469ZM71.2116 38.0469C70.4303 38.1719 69.7116 38.0469 69.0553 37.6719C68.4303 37.2656 67.9303 36.75 67.5553 36.125C67.1803 35.4688 66.9616 34.7656 66.8991 34.0156C66.8366 33.2344 66.9928 32.5312 67.3678 31.9062C68.7428 30.125 69.6803 28.7188 70.1803 27.6875C70.6803 26.625 70.8522 25.8906 70.6959 25.4844C70.5709 25.0469 70.1803 24.875 69.5241 24.9688C68.8991 25.0312 68.1334 25.3125 67.2272 25.8125C66.3209 26.2812 65.3366 26.9062 64.2741 27.6875C63.2428 28.4688 62.2741 29.3281 61.3678 30.2656C60.4616 31.2031 59.6647 32.1875 58.9772 33.2188C58.3209 34.2188 57.8991 35.2031 57.7116 36.1719C57.3991 36.3594 57.1334 36.5156 56.9147 36.6406C56.6959 36.7344 56.4459 36.7812 56.1647 36.7812C55.6959 36.7812 55.4147 36.625 55.3209 36.3125C55.2272 36 55.1803 35.6719 55.1803 35.3281C55.1803 34.5469 55.4147 33.75 55.8834 32.9375C56.3834 32.0938 56.9459 31.3125 57.5709 30.5938C58.2272 29.8438 58.8522 29.1719 59.4459 28.5781C60.0397 27.9531 60.4616 27.4531 60.7116 27.0781C61.4928 25.7969 62.2741 24.4219 63.0553 22.9531C63.8366 21.4531 64.6178 19.9375 65.3991 18.4062C66.1803 16.8438 66.9772 15.3125 67.7897 13.8125C68.6334 12.2813 69.5084 10.8281 70.4147 9.45312C70.5709 9.20312 70.6959 9.03125 70.7897 8.9375C70.9147 8.84375 71.0866 8.79688 71.3053 8.79688C71.5553 8.79688 71.7428 8.84375 71.8678 8.9375C71.9928 9.03125 72.1178 9.20312 72.2428 9.45312C72.2428 9.57812 72.2116 9.78125 72.1491 10.0625C72.1178 10.3438 72.0709 10.6562 72.0084 11C71.9772 11.3125 71.9147 11.6094 71.8209 11.8906C71.7584 12.1719 71.7116 12.3594 71.6803 12.4531C71.4928 12.8281 71.1803 13.4844 70.7428 14.4219C70.3053 15.3594 69.8209 16.3594 69.2897 17.4219C68.7897 18.4844 68.3053 19.5312 67.8366 20.5625C67.3678 21.5625 67.0241 22.3125 66.8053 22.8125C67.2741 22.5 67.6959 22.2656 68.0709 22.1094C68.4459 21.9219 68.8053 21.7969 69.1491 21.7344C69.5241 21.6406 69.8991 21.5938 70.2741 21.5938C70.6803 21.5625 71.1178 21.5469 71.5866 21.5469C72.7116 21.8281 73.4459 22.25 73.7897 22.8125C74.1647 23.375 74.2741 24.0312 74.1178 24.7812C73.9928 25.5 73.6959 26.2969 73.2272 27.1719C72.7584 28.0469 72.2584 28.9375 71.7272 29.8438C71.2272 30.7188 70.7741 31.5781 70.3678 32.4219C69.9616 33.2344 69.7741 33.9844 69.8053 34.6719C69.8053 34.9531 69.8678 35.1562 69.9928 35.2812C70.1178 35.4062 70.2741 35.5 70.4616 35.5625C70.6491 35.625 70.8522 35.6562 71.0709 35.6562C71.2897 35.6562 71.4928 35.6562 71.6803 35.6562C72.3366 35.6562 72.9616 35.5625 73.5553 35.375C74.1803 35.1562 74.7897 34.9219 75.3834 34.6719C75.9772 34.4219 76.5709 34.2031 77.1647 34.0156C77.7897 33.7969 78.4303 33.6875 79.0866 33.6875C79.0866 34.2812 78.7897 34.8438 78.1959 35.375C77.6022 35.9062 76.8834 36.375 76.0397 36.7812C75.2272 37.1562 74.3678 37.4688 73.4616 37.7188C72.5553 37.9375 71.8053 38.0469 71.2116 38.0469ZM108.539 38.0469C107.945 38.0469 107.398 37.9375 106.898 37.7188C106.43 37.5 106.039 37.1875 105.727 36.7812C105.414 36.375 105.195 35.9219 105.07 35.4219C104.945 34.8906 104.961 34.3281 105.117 33.7344C105.117 32.7344 105.289 31.8125 105.633 30.9688C106.008 30.0938 106.414 29.2656 106.852 28.4844C107.32 27.6719 107.727 26.875 108.07 26.0938C108.445 25.2812 108.633 24.4219 108.633 23.5156C107.945 23.5156 107.211 23.7344 106.43 24.1719C105.648 24.6094 104.852 25.1875 104.039 25.9062C103.258 26.625 102.477 27.4375 101.695 28.3438C100.945 29.2188 100.227 30.1094 99.5391 31.0156C98.8828 31.8906 98.3047 32.7344 97.8047 33.5469C97.3359 34.3594 96.9766 35.0312 96.7266 35.5625C96.6641 35.5938 96.5078 35.625 96.2578 35.6562C96.0078 35.6562 95.8516 35.6562 95.7891 35.6562C95.2891 35.9062 94.9766 35.9062 94.8516 35.6562C94.7578 35.375 94.7578 34.9531 94.8516 34.3906C94.9766 33.8281 95.1641 33.2031 95.4141 32.5156C95.6641 31.7969 95.8984 31.125 96.1172 30.5C96.3672 29.8438 96.5547 29.3125 96.6797 28.9062C96.8047 28.4688 96.8203 28.25 96.7266 28.25C96.8203 28.125 96.9297 27.9219 97.0547 27.6406C97.1797 27.3594 97.3047 27.0625 97.4297 26.75C97.5547 26.4375 97.6641 26.1562 97.7578 25.9062C97.8516 25.625 97.8984 25.4062 97.8984 25.25C97.8984 24.9688 97.7891 24.7969 97.5703 24.7344C97.3828 24.6406 97.1953 24.5938 97.0078 24.5938C96.4453 24.2812 95.8359 24.4688 95.1797 25.1562C94.5547 25.8125 93.8672 26.7656 93.1172 28.0156C92.3984 29.2344 91.6016 30.6406 90.7266 32.2344C89.8828 33.7969 88.9453 35.3125 87.9141 36.7812C87.1953 36.7812 86.6484 36.6875 86.2734 36.5C85.8984 36.3125 85.7109 35.8438 85.7109 35.0938C85.9609 34.75 86.3359 34.1094 86.8359 33.1719C87.3359 32.2031 87.8984 31.1406 88.5234 29.9844C89.1484 28.8281 89.8047 27.6562 90.4922 26.4688C91.2109 25.2812 91.8828 24.2812 92.5078 23.4688C93.1641 22.625 93.7422 22.0625 94.2422 21.7812C94.7734 21.4688 95.1953 21.6094 95.5078 22.2031C96.0391 21.8594 96.6172 21.5625 97.2422 21.3125C97.8984 21.0625 98.5547 20.9375 99.2109 20.9375C99.6484 20.9375 100.008 21.0781 100.289 21.3594C100.602 21.6094 100.836 21.9375 100.992 22.3438C101.18 22.7188 101.32 23.125 101.414 23.5625C101.508 23.9688 101.555 24.3281 101.555 24.6406C101.898 24.4219 102.461 24.0469 103.242 23.5156C104.055 22.9531 104.914 22.3906 105.82 21.8281C106.758 21.2656 107.664 20.7812 108.539 20.375C109.445 19.9375 110.18 19.7188 110.742 19.7188C111.242 19.7188 111.664 19.9062 112.008 20.2812C112.383 20.625 112.57 21.0625 112.57 21.5938C111.445 24.3438 110.555 26.5469 109.898 28.2031C109.273 29.8594 108.852 31.1562 108.633 32.0938C108.445 33 108.445 33.6562 108.633 34.0625C108.852 34.4375 109.227 34.7344 109.758 34.9531C110.602 34.9531 111.414 34.8125 112.195 34.5312C112.977 34.25 113.742 33.9375 114.492 33.5938C115.273 33.25 116.055 32.9375 116.836 32.6562C117.617 32.375 118.445 32.2344 119.32 32.2344C119.32 32.5781 119.227 32.9062 119.039 33.2188C118.883 33.5 118.633 33.7188 118.289 33.875C118.039 34.0312 117.586 34.2812 116.93 34.625C116.305 34.9375 115.617 35.2812 114.867 35.6562C114.117 36 113.398 36.3438 112.711 36.6875C112.055 37.0312 111.586 37.2656 111.305 37.3906C110.68 37.6719 110.195 37.8594 109.852 37.9531C109.539 38.0156 109.102 38.0469 108.539 38.0469ZM126.835 35.5625C126.304 34.375 126.07 33.2188 126.132 32.0938C126.195 30.9375 126.445 29.8594 126.882 28.8594C127.351 27.8281 127.945 26.9062 128.663 26.0938C129.413 25.25 130.21 24.5312 131.054 23.9375C131.898 23.3125 132.742 22.8438 133.585 22.5312C134.46 22.2188 135.226 22.0938 135.882 22.1562C136.538 22.1875 137.054 22.4219 137.429 22.8594C137.804 23.2969 137.929 23.9688 137.804 24.875C137.804 26.0938 137.413 27.1562 136.632 28.0625C135.882 28.9688 135.038 29.7812 134.101 30.5C133.195 31.2188 132.351 31.875 131.57 32.4688C130.82 33.0312 130.445 33.5625 130.445 34.0625C130.445 34.3438 130.601 34.5625 130.913 34.7188C131.257 34.875 131.648 35 132.085 35.0938C132.523 35.1562 132.96 35.2031 133.398 35.2344C133.835 35.2656 134.148 35.2969 134.335 35.3281C137.273 34.7031 139.476 34.3281 140.945 34.2031C142.413 34.0469 143.335 34.0625 143.71 34.25C144.085 34.4062 144.007 34.6719 143.476 35.0469C142.976 35.3906 142.195 35.7656 141.132 36.1719C140.07 36.5469 138.835 36.8906 137.429 37.2031C136.023 37.5156 134.632 37.7031 133.257 37.7656C131.882 37.7969 130.601 37.6562 129.413 37.3438C128.257 37.0312 127.398 36.4375 126.835 35.5625ZM135.038 24.875C134.413 24.875 133.82 25.0469 133.257 25.3906C132.695 25.7344 132.179 26.1719 131.71 26.7031C131.273 27.2031 130.898 27.7656 130.585 28.3906C130.273 28.9844 130.038 29.5469 129.882 30.0781C129.945 30.1094 129.992 30.125 130.023 30.125H130.163C130.601 30.125 131.101 29.9375 131.663 29.5625C132.226 29.1875 132.757 28.7344 133.257 28.2031C133.757 27.6406 134.179 27.0625 134.523 26.4688C134.867 25.875 135.038 25.3438 135.038 24.875ZM151.366 33.3594C151.366 31.7969 151.803 30.2656 152.678 28.7656C153.585 27.2656 154.725 25.9375 156.1 24.7812C157.475 23.625 158.991 22.7031 160.647 22.0156C162.303 21.2969 163.882 20.9375 165.382 20.9375C165.975 20.9375 166.538 21.0469 167.069 21.2656C167.6 21.4844 168.163 21.5938 168.757 21.5938H169.038C169.194 21.25 169.491 20.6406 169.928 19.7656C170.397 18.8906 170.882 17.9688 171.382 17C171.913 16.0312 172.413 15.125 172.882 14.2812C173.35 13.4063 173.694 12.7969 173.913 12.4531C174.257 11.8594 174.725 11.125 175.319 10.25C175.913 9.34375 176.491 8.46875 177.053 7.625C177.647 6.78125 178.163 6.0625 178.6 5.46875C179.038 4.875 179.288 4.57812 179.35 4.57812L181.178 6.40625C181.178 6.46875 181.053 6.75 180.803 7.25C180.585 7.75 180.288 8.40625 179.913 9.21875C179.538 10 179.1 10.875 178.6 11.8438C178.132 12.8125 177.647 13.7813 177.147 14.75C176.647 15.7188 176.163 16.6562 175.694 17.5625C175.257 18.4375 174.866 19.1719 174.522 19.7656C173.553 21.2344 172.569 22.7344 171.569 24.2656C170.6 25.7656 169.819 27.1719 169.225 28.4844C168.663 29.7656 168.382 30.8906 168.382 31.8594C168.413 32.8281 168.944 33.5 169.975 33.875C171.85 33.5312 173.257 33.3906 174.194 33.4531C175.132 33.5156 175.71 33.6875 175.928 33.9688C176.178 34.2188 176.147 34.5312 175.835 34.9062C175.522 35.25 175.022 35.5625 174.335 35.8438C173.678 36.125 172.913 36.3125 172.038 36.4062C171.163 36.5 170.288 36.4062 169.413 36.125C168.538 35.8438 167.741 35.3281 167.022 34.5781C166.303 33.8281 165.757 32.75 165.382 31.3438L158.116 37.3906C158.116 37.3906 157.991 37.4219 157.741 37.4844C157.522 37.5469 157.241 37.6094 156.897 37.6719C156.585 37.7344 156.257 37.7969 155.913 37.8594C155.569 37.9219 155.288 37.9688 155.069 38H154.788C154.069 38 153.475 37.875 153.007 37.625C152.569 37.3438 152.225 37 151.975 36.5938C151.725 36.1562 151.553 35.6562 151.46 35.0938C151.397 34.5312 151.366 33.9531 151.366 33.3594ZM154.413 32.8438C154.413 33.0312 154.397 33.25 154.366 33.5C154.366 33.75 154.382 33.9844 154.413 34.2031C154.475 34.3906 154.569 34.5625 154.694 34.7188C154.85 34.875 155.069 34.9531 155.35 34.9531C155.757 34.9531 156.241 34.8125 156.803 34.5312C157.397 34.2188 157.975 33.8594 158.538 33.4531C159.1 33.0469 159.616 32.6406 160.085 32.2344C160.585 31.8281 160.944 31.5312 161.163 31.3438C161.382 31.125 161.788 30.7344 162.382 30.1719C162.975 29.5781 163.585 28.9531 164.21 28.2969C164.866 27.6406 165.475 27.0312 166.038 26.4688C166.6 25.9062 166.991 25.5 167.21 25.25V25.1094C167.21 25.0469 167.21 25.0156 167.21 25.0156C167.241 24.9844 167.257 24.9531 167.257 24.9219C167.257 24.6406 167.163 24.4375 166.975 24.3125C166.819 24.1562 166.616 24.0625 166.366 24.0312C166.147 23.9688 165.913 23.9531 165.663 23.9844C165.413 23.9844 165.21 23.9844 165.053 23.9844C163.928 23.9844 162.741 24.2188 161.491 24.6875C160.241 25.1562 159.085 25.7969 158.022 26.6094C156.991 27.3906 156.132 28.3281 155.444 29.4219C154.757 30.4844 154.413 31.625 154.413 32.8438ZM17.6738 102.531C17.6738 100.094 17.705 97.7812 17.7675 95.5938C17.8613 93.4062 18.0488 91.0625 18.33 88.5625C18.2363 87.625 18.1269 86.6094 18.0019 85.5156C17.8769 84.3906 17.6738 83.2969 17.3925 82.2344C17.1425 81.1406 16.7831 80.1406 16.3144 79.2344C15.8769 78.3281 15.2988 77.625 14.58 77.125C13.1425 78.8438 11.955 80.4219 11.0175 81.8594C10.1113 83.2656 9.36125 84.5156 8.7675 85.6094C8.205 86.6719 7.75188 87.5625 7.40813 88.2812C7.06438 88.9688 6.75188 89.4531 6.47063 89.7344C6.18938 90.0156 5.8925 90.0625 5.58 89.875C5.2675 89.6875 4.86125 89.25 4.36125 88.5625C4.92375 87.6562 5.6425 86.4844 6.5175 85.0469C7.3925 83.5781 8.34563 81.9531 9.37688 80.1719C10.4394 78.3906 11.5488 76.5156 12.705 74.5469C13.8613 72.5469 15.0019 70.5938 16.1269 68.6875C17.2831 66.75 18.3769 64.9062 19.4081 63.1562C20.4394 61.4062 21.3613 59.875 22.1738 58.5625C22.455 58.4375 22.6738 58.375 22.83 58.375C23.0175 58.375 23.1425 58.4062 23.205 58.4688C23.2988 58.5312 23.3456 58.6094 23.3456 58.7031C23.3769 58.7656 23.3925 58.8125 23.3925 58.8438C23.3925 59.6875 23.1738 60.7031 22.7363 61.8906C22.33 63.0781 21.8144 64.2969 21.1894 65.5469C20.5956 66.7656 19.9706 67.9219 19.3144 69.0156C18.6894 70.0781 18.1425 70.9062 17.6738 71.5C18.6113 71.2812 19.6113 70.875 20.6738 70.2812C21.7675 69.6875 22.8456 69.0156 23.9081 68.2656C25.0019 67.5156 26.0644 66.7188 27.0956 65.875C28.1581 65.0312 29.1425 64.2656 30.0488 63.5781C30.9863 62.8906 31.83 62.3281 32.58 61.8906C33.33 61.4219 33.955 61.1875 34.455 61.1875C34.6113 61.1875 34.7675 61.2656 34.9238 61.4219C35.08 61.5781 35.2206 61.7812 35.3456 62.0312C35.4706 62.25 35.5644 62.4844 35.6269 62.7344C35.7206 62.9531 35.7675 63.125 35.7675 63.25C35.2363 63.25 34.5175 63.5312 33.6113 64.0938C32.705 64.625 31.5175 65.4062 30.0488 66.4375C28.58 67.4688 26.7831 68.7188 24.6581 70.1875C22.5644 71.625 20.0644 73.2344 17.1581 75.0156C17.5019 75.4844 17.8769 76.0469 18.2831 76.7031C18.7206 77.3594 19.1113 78.0469 19.455 78.7656C19.83 79.4844 20.1425 80.2188 20.3925 80.9688C20.6425 81.7188 20.7675 82.4219 20.7675 83.0781C20.9238 86.2656 20.8769 89.4375 20.6269 92.5938C20.3769 95.75 20.205 98.8438 20.1113 101.875C21.3925 102.156 22.2831 102.453 22.7831 102.766C23.3144 103.109 23.5644 103.406 23.5331 103.656C23.5019 103.938 23.2519 104.156 22.7831 104.312C22.3456 104.469 21.8144 104.516 21.1894 104.453C20.5956 104.422 19.9706 104.25 19.3144 103.938C18.6581 103.656 18.1113 103.188 17.6738 102.531ZM34.9856 87.9531C34.9856 87.5156 35.0325 87.1406 35.1263 86.8281C35.22 86.4844 35.3919 86.0469 35.6419 85.5156C35.8606 85.2031 36.2513 84.6094 36.8138 83.7344C37.4075 82.8594 38.0169 81.9375 38.6419 80.9688C39.2981 80 39.9075 79.0938 40.47 78.25C41.0638 77.375 41.47 76.7656 41.6888 76.4219C41.97 76.0156 42.1888 75.7969 42.345 75.7656C42.5013 75.7344 42.7981 75.7188 43.2356 75.7188C43.5169 75.7188 43.8138 75.7344 44.1263 75.7656C44.47 75.7969 44.6888 76.0156 44.7825 76.4219C44.345 77.4844 43.7513 78.5 43.0013 79.4688C42.2825 80.4062 41.5638 81.3438 40.845 82.2812C40.1575 83.2188 39.5481 84.1875 39.0169 85.1875C38.4856 86.1562 38.22 87.2031 38.22 88.3281C38.345 88.3281 38.5325 88.3438 38.7825 88.375C39.0638 88.4062 39.3606 88.4375 39.6731 88.4688C39.9856 88.5 40.2669 88.5312 40.5169 88.5625C40.7981 88.5938 41.0013 88.5938 41.1263 88.5625C41.3138 88.5312 41.6263 88.4688 42.0638 88.375C42.5325 88.25 43.0169 88.125 43.5169 88C44.0481 87.875 44.5481 87.75 45.0169 87.625C45.4856 87.5 45.8138 87.4062 46.0013 87.3438C46.0013 87.4062 46.0013 87.5156 46.0013 87.6719C46.0325 87.7969 46.0481 87.8906 46.0481 87.9531C46.0481 88.5781 45.7513 89.0938 45.1575 89.5C44.595 89.9062 43.9231 90.2344 43.1419 90.4844C42.3919 90.7031 41.6106 90.8594 40.7981 90.9531C40.0169 91.0156 39.4075 91.0469 38.97 91.0469C38.5013 91.0469 38.0169 91 37.5169 90.9062C37.0481 90.7812 36.6263 90.5938 36.2513 90.3438C35.8763 90.0938 35.5638 89.7812 35.3138 89.4062C35.095 89 34.9856 88.5156 34.9856 87.9531ZM48.6263 60.4844C49.0325 60.4844 49.4075 60.5 49.7513 60.5312C50.095 60.5625 50.3919 60.6406 50.6419 60.7656C50.8919 60.8906 51.095 61.0781 51.2513 61.3281C51.4075 61.5781 51.4856 61.9219 51.4856 62.3594C51.4856 62.5469 51.4856 62.75 51.4856 62.9688C51.4856 63.1875 51.4544 63.4062 51.3919 63.625C51.3606 63.8125 51.2825 63.9844 51.1575 64.1406C51.0325 64.2656 50.8294 64.3281 50.5481 64.3281C50.1106 64.3281 49.7513 64.1719 49.47 63.8594C49.22 63.5469 49.0325 63.1875 48.9075 62.7812C48.7825 62.3438 48.7044 61.9062 48.6731 61.4688C48.6419 61.0312 48.6263 60.7031 48.6263 60.4844ZM54.7819 86.4531C54.7819 85.5469 54.9538 84.6406 55.2975 83.7344C55.6413 82.8281 56.0475 81.9375 56.5163 81.0625C56.985 80.1562 57.4538 79.2656 57.9225 78.3906C58.4225 77.5156 58.7975 76.6562 59.0475 75.8125C58.4538 76.1562 57.9381 76.3594 57.5006 76.4219C57.0944 76.4531 56.5944 76.4688 56.0006 76.4688C55.9381 76.4688 55.735 76.4688 55.3913 76.4688C55.0788 76.4375 54.8756 76.4219 54.7819 76.4219C54.9694 75.7344 55.3131 75.125 55.8131 74.5938C56.3131 74.0312 56.8756 73.5625 57.5006 73.1875C58.1569 72.7812 58.8288 72.4531 59.5163 72.2031C60.235 71.9219 60.8756 71.7031 61.4381 71.5469C62.3756 70.0781 63.1413 68.6094 63.735 67.1406C64.3288 65.6406 64.9225 64.1875 65.5163 62.7812C66.1413 61.3438 66.86 59.9844 67.6725 58.7031C68.5163 57.3906 69.6413 56.1875 71.0475 55.0938L71.2819 56.875L65.4225 70.6094C65.7663 70.5156 66.1881 70.4219 66.6881 70.3281C67.1881 70.2344 67.6881 70.1406 68.1881 70.0469C68.7194 69.9531 69.2194 69.875 69.6881 69.8125C70.1881 69.7188 70.61 69.625 70.9538 69.5312C70.985 69.5312 71.0788 69.5312 71.235 69.5312C71.3913 69.5 71.5163 69.4844 71.61 69.4844C72.0475 69.4844 72.4069 69.5625 72.6881 69.7188C72.9694 69.875 73.2038 70.2188 73.3913 70.75C71.2663 71.375 69.3444 72.0312 67.6256 72.7188C65.9069 73.4062 64.4069 74.3125 63.1256 75.4375C61.8756 76.5312 60.8444 77.9375 60.0319 79.6562C59.2506 81.3438 58.7038 83.5156 58.3913 86.1719C58.3913 86.7344 58.4225 87.25 58.485 87.7188C58.5475 88.1875 58.9381 88.4688 59.6569 88.5625C60.3756 88.5625 61.0475 88.4219 61.6725 88.1406C62.2975 87.8594 62.9069 87.5625 63.5006 87.25C64.0944 86.9062 64.6881 86.5938 65.2819 86.3125C65.9069 86.0312 66.5788 85.8906 67.2975 85.8906C67.2975 86.6406 66.9694 87.3281 66.3131 87.9531C65.6569 88.5781 64.86 89.125 63.9225 89.5938C63.0163 90.0625 62.0788 90.4219 61.11 90.6719C60.1413 90.9219 59.3444 91.0469 58.7194 91.0469C58.0944 91.0469 57.5319 90.9219 57.0319 90.6719C56.5319 90.4219 56.11 90.0938 55.7663 89.6875C55.4538 89.25 55.2038 88.75 55.0163 88.1875C54.86 87.625 54.7819 87.0469 54.7819 86.4531ZM87.375 74.0312C86.6562 74.125 85.8281 74.5781 84.8906 75.3906C83.9531 76.1719 83.0469 77.1406 82.1719 78.2969C81.3281 79.4219 80.6094 80.6562 80.0156 82C79.4219 83.3125 79.125 84.5312 79.125 85.6562C79.125 86.5625 79.3594 87.2031 79.8281 87.5781C80.2969 87.9219 80.9688 88.0938 81.8438 88.0938C82.7812 88.0938 83.6875 87.9844 84.5625 87.7656C85.4688 87.5156 86.3594 87.2656 87.2344 87.0156C88.1406 86.7344 89.0312 86.4844 89.9062 86.2656C90.8125 86.0156 91.7344 85.8906 92.6719 85.8906C92.6719 86.3281 92.6094 86.7031 92.4844 87.0156C92.3594 87.2969 92.1719 87.6094 91.9219 87.9531C90.2969 88.7344 88.625 89.4531 86.9062 90.1094C85.1875 90.7344 83.3906 91.0469 81.5156 91.0469C80.9531 91.0469 80.3594 90.9531 79.7344 90.7656C79.1094 90.5469 78.5312 90.25 78 89.875C77.4688 89.5 77.0156 89.0469 76.6406 88.5156C76.2969 87.9844 76.125 87.3906 76.125 86.7344C76.125 85.3281 76.3281 83.9688 76.7344 82.6562C77.1406 81.3125 77.7031 80.0469 78.4219 78.8594C79.1406 77.6719 80 76.5781 81 75.5781C82.0312 74.5781 83.1406 73.7031 84.3281 72.9531V72.9062C84.7969 72.625 85.3281 72.3594 85.9219 72.1094C86.5469 71.8281 87.125 71.6719 87.6562 71.6406C88.1875 71.5781 88.625 71.7031 88.9688 72.0156C89.3438 72.2969 89.5312 72.8438 89.5312 73.6562C89.5312 74.0312 89.5 74.5312 89.4375 75.1562C89.375 75.75 89.2031 76.1719 88.9219 76.4219C88.6719 76.5781 88.3438 76.7188 87.9375 76.8438C87.75 76.9062 87.5625 76.9531 87.375 76.9844V74.0312ZM117.062 91.0469C116.281 91.1719 115.562 91.0469 114.906 90.6719C114.281 90.2656 113.781 89.75 113.406 89.125C113.031 88.4688 112.812 87.7656 112.749 87.0156C112.687 86.2344 112.843 85.5312 113.218 84.9062C114.593 83.125 115.531 81.7188 116.031 80.6875C116.531 79.625 116.702 78.8906 116.546 78.4844C116.421 78.0469 116.031 77.875 115.374 77.9688C114.749 78.0312 113.984 78.3125 113.077 78.8125C112.171 79.2812 111.187 79.9062 110.124 80.6875C109.093 81.4688 108.124 82.3281 107.218 83.2656C106.312 84.2031 105.515 85.1875 104.827 86.2188C104.171 87.2188 103.749 88.2031 103.562 89.1719C103.249 89.3594 102.984 89.5156 102.765 89.6406C102.546 89.7344 102.296 89.7812 102.015 89.7812C101.546 89.7812 101.265 89.625 101.171 89.3125C101.077 89 101.031 88.6719 101.031 88.3281C101.031 87.5469 101.265 86.75 101.734 85.9375C102.234 85.0938 102.796 84.3125 103.421 83.5938C104.077 82.8438 104.702 82.1719 105.296 81.5781C105.89 80.9531 106.312 80.4531 106.562 80.0781C107.343 78.7969 108.124 77.4219 108.906 75.9531C109.687 74.4531 110.468 72.9375 111.249 71.4062C112.031 69.8438 112.827 68.3125 113.64 66.8125C114.484 65.2812 115.359 63.8281 116.265 62.4531C116.421 62.2031 116.546 62.0312 116.64 61.9375C116.765 61.8438 116.937 61.7969 117.156 61.7969C117.406 61.7969 117.593 61.8438 117.718 61.9375C117.843 62.0312 117.968 62.2031 118.093 62.4531C118.093 62.5781 118.062 62.7812 117.999 63.0625C117.968 63.3438 117.921 63.6562 117.859 64C117.827 64.3125 117.765 64.6094 117.671 64.8906C117.609 65.1719 117.562 65.3594 117.531 65.4531C117.343 65.8281 117.031 66.4844 116.593 67.4219C116.156 68.3594 115.671 69.3594 115.14 70.4219C114.64 71.4844 114.156 72.5312 113.687 73.5625C113.218 74.5625 112.874 75.3125 112.656 75.8125C113.124 75.5 113.546 75.2656 113.921 75.1094C114.296 74.9219 114.656 74.7969 114.999 74.7344C115.374 74.6406 115.749 74.5938 116.124 74.5938C116.531 74.5625 116.968 74.5469 117.437 74.5469C118.562 74.8281 119.296 75.25 119.64 75.8125C120.015 76.375 120.124 77.0312 119.968 77.7812C119.843 78.5 119.546 79.2969 119.077 80.1719C118.609 81.0469 118.109 81.9375 117.577 82.8438C117.077 83.7188 116.624 84.5781 116.218 85.4219C115.812 86.2344 115.624 86.9844 115.656 87.6719C115.656 87.9531 115.718 88.1562 115.843 88.2812C115.968 88.4062 116.124 88.5 116.312 88.5625C116.499 88.625 116.702 88.6562 116.921 88.6562C117.14 88.6562 117.343 88.6562 117.531 88.6562C118.187 88.6562 118.812 88.5625 119.406 88.375C120.031 88.1562 120.64 87.9219 121.234 87.6719C121.827 87.4219 122.421 87.2031 123.015 87.0156C123.64 86.7969 124.281 86.6875 124.937 86.6875C124.937 87.2812 124.64 87.8438 124.046 88.375C123.452 88.9062 122.734 89.375 121.89 89.7812C121.077 90.1562 120.218 90.4688 119.312 90.7188C118.406 90.9375 117.656 91.0469 117.062 91.0469ZM132.03 88.5625C131.499 87.375 131.264 86.2188 131.327 85.0938C131.389 83.9375 131.639 82.8594 132.077 81.8594C132.546 80.8281 133.139 79.9062 133.858 79.0938C134.608 78.25 135.405 77.5312 136.249 76.9375C137.092 76.3125 137.936 75.8438 138.78 75.5312C139.655 75.2188 140.421 75.0938 141.077 75.1562C141.733 75.1875 142.249 75.4219 142.624 75.8594C142.999 76.2969 143.124 76.9688 142.999 77.875C142.999 79.0938 142.608 80.1562 141.827 81.0625C141.077 81.9688 140.233 82.7812 139.296 83.5C138.389 84.2188 137.546 84.875 136.764 85.4688C136.014 86.0312 135.639 86.5625 135.639 87.0625C135.639 87.3438 135.796 87.5625 136.108 87.7188C136.452 87.875 136.842 88 137.28 88.0938C137.717 88.1562 138.155 88.2031 138.592 88.2344C139.03 88.2656 139.342 88.2969 139.53 88.3281C142.467 87.7031 144.671 87.3281 146.139 87.2031C147.608 87.0469 148.53 87.0625 148.905 87.25C149.28 87.4062 149.202 87.6719 148.671 88.0469C148.171 88.3906 147.389 88.7656 146.327 89.1719C145.264 89.5469 144.03 89.8906 142.624 90.2031C141.217 90.5156 139.827 90.7031 138.452 90.7656C137.077 90.7969 135.796 90.6562 134.608 90.3438C133.452 90.0312 132.592 89.4375 132.03 88.5625ZM140.233 77.875C139.608 77.875 139.014 78.0469 138.452 78.3906C137.889 78.7344 137.374 79.1719 136.905 79.7031C136.467 80.2031 136.092 80.7656 135.78 81.3906C135.467 81.9844 135.233 82.5469 135.077 83.0781C135.139 83.1094 135.186 83.125 135.217 83.125H135.358C135.796 83.125 136.296 82.9375 136.858 82.5625C137.421 82.1875 137.952 81.7344 138.452 81.2031C138.952 80.6406 139.374 80.0625 139.717 79.4688C140.061 78.875 140.233 78.3438 140.233 77.875ZM157.17 88.8906C157.17 88.6094 157.17 88.3906 157.17 88.2344C157.17 88.0781 157.186 87.9375 157.217 87.8125C157.279 87.6562 157.357 87.5 157.451 87.3438C157.545 87.1875 157.67 86.9844 157.826 86.7344C158.076 86.2969 158.545 85.5312 159.232 84.4375C159.92 83.3438 160.654 82.1875 161.436 80.9688C162.217 79.75 162.951 78.5938 163.639 77.5C164.357 76.4062 164.857 75.6406 165.139 75.2031C165.17 75.1719 165.248 75.1562 165.373 75.1562C165.529 75.1562 165.639 75.1562 165.701 75.1562C165.764 75.1562 165.873 75.1562 166.029 75.1562C166.186 75.1562 166.279 75.1719 166.311 75.2031C166.342 75.2344 166.404 75.3125 166.498 75.4375C166.623 75.5625 166.748 75.7031 166.873 75.8594C167.029 75.9844 167.154 76.1094 167.248 76.2344C167.373 76.3594 167.467 76.4219 167.529 76.4219C167.811 76.4219 168.107 76.3281 168.42 76.1406C168.732 75.9531 169.045 75.75 169.357 75.5312C169.701 75.2812 170.045 75.0625 170.389 74.875C170.732 74.6875 171.092 74.5938 171.467 74.5938C171.873 74.5938 172.248 74.6875 172.592 74.875C172.936 75.0625 173.232 75.2969 173.482 75.5781C173.732 75.8594 173.92 76.1719 174.045 76.5156C174.201 76.8594 174.279 77.2031 174.279 77.5469C174.279 78.2656 174.17 78.9531 173.951 79.6094C173.764 80.2656 173.545 80.9219 173.295 81.5781C173.045 82.2031 172.811 82.8438 172.592 83.5C172.404 84.125 172.311 84.7812 172.311 85.4688C172.311 86.1562 172.389 86.6562 172.545 86.9688C172.701 87.25 173.139 87.3906 173.857 87.3906C174.701 87.3906 175.498 87.2656 176.248 87.0156C177.029 86.7656 177.826 86.6406 178.639 86.6406C178.639 87.3906 178.404 88.0156 177.936 88.5156C177.498 89.0156 176.936 89.4219 176.248 89.7344C175.592 90.0156 174.873 90.2188 174.092 90.3438C173.342 90.4375 172.654 90.4844 172.029 90.4844C170.842 90.4844 169.967 90.1562 169.404 89.5C168.873 88.8125 168.607 87.9062 168.607 86.7812C168.607 86.0312 168.732 85.3281 168.982 84.6719C169.264 84.0156 169.561 83.375 169.873 82.75C170.217 82.125 170.529 81.5 170.811 80.875C171.092 80.25 171.232 79.5781 171.232 78.8594C171.232 78.6719 171.201 78.4219 171.139 78.1094C171.076 77.7969 170.873 77.6406 170.529 77.6406C169.498 77.6406 168.561 77.9688 167.717 78.625C166.904 79.2812 166.154 80.1094 165.467 81.1094C164.811 82.1094 164.201 83.1875 163.639 84.3438C163.107 85.5 162.592 86.5781 162.092 87.5781C161.623 88.5781 161.17 89.4062 160.732 90.0625C160.295 90.7188 159.842 91.0469 159.373 91.0469C158.717 91.0469 158.186 90.8438 157.779 90.4375C157.373 90.0312 157.17 89.5156 157.17 88.8906Z" fill="#1F9595"/>
</g>
<defs>
<filter id="filter0_d_42_52" x="0.361267" y="0.265625" width="184.817" height="112.281" filterUnits="userSpaceOnUse" color-interpolation-filters="sRGB">
<feFlood flood-opacity="0" result="BackgroundImageFix"/>
<feColorMatrix in="SourceAlpha" type="matrix" values="0 0 0 0 0 0 0 0 0 0 0 0 0 0 0 0 0 0 127 0" result="hardAlpha"/>
<feOffset dy="4"/>
<feGaussianBlur stdDeviation="2"/>
<feComposite in2="hardAlpha" operator="out"/>
<feColorMatrix type="matrix" values="0 0 0 0 0 0 0 0 0 0 0 0 0 0 0 0 0 0 0.25 0"/>
<feBlend mode="normal" in2="BackgroundImageFix" result="effect1_dropShadow_42_52"/>
<feBlend mode="normal" in="SourceGraphic" in2="effect1_dropShadow_42_52" result="shape"/>
</filter>
</defs>
</svg>
